# xmcd CD database file
#
# Track frame offsets:
#	187
#	24397
#	50824
#
# Disc length: 890 seconds
#
# Revision: 0
# Processed by: cddbd v1.5.1PL0 Copyright (c) Steve Scherf et al.
# Submitted via: CDex 1.51
#
DISCID=20037803
DTITLE=BUGY CRAXONE - ピストルと天使
DYEAR=1999
DGENRE=Rock
TTITLE0=ピストルと天使
TTITLE1=泣きたい
TTITLE2=枯れた花
EXTD=YEAR: 1999
EXTT0=
EXTT1=
EXTT2=
PLAYORDER=
